<?xml version="1.0" standalone="no"?>
<!DOCTYPE svg PUBLIC "-//W3C//DTD SVG 20010904//EN"
 "http://www.w3.org/TR/2001/REC-SVG-20010904/DTD/svg10.dtd">
<svg version="1.0" xmlns="http://www.w3.org/2000/svg"
 width="520.000000pt" height="520.000000pt" viewBox="0 0 520.000000 520.000000"
 preserveAspectRatio="xMidYMid meet">

<g transform="translate(0.000000,520.000000) scale(0.100000,-0.100000)"
fill="#000000" stroke="none">
<path d="M3299 5168 c-9 -7 -23 -39 -33 -71 -21 -71 -66 -372 -66 -447 0 -30
-3 -66 -7 -78 -5 -21 -10 -23 -37 -17 -17 4 -40 9 -51 10 -11 2 -20 4 -20 5 0
3 -27 8 -155 29 -245 41 -485 38 -719 -10 -51 -10 -103 -21 -115 -23 -11 -2
-41 -9 -65 -16 -23 -6 -45 -10 -47 -7 -4 4 -45 305 -64 471 -10 86 -35 139
-67 144 -27 4 -69 -47 -83 -101 -6 -23 -27 -85 -45 -137 -19 -52 -37 -108 -41
-125 -3 -16 -21 -82 -39 -145 -18 -63 -40 -151 -50 -195 -10 -44 -21 -87 -26
-96 -4 -8 -36 -33 -71 -54 -35 -22 -69 -45 -76 -52 -7 -7 -17 -13 -20 -13 -4
0 -20 -12 -37 -27 -16 -16 -45 -41 -65 -56 -60 -48 -209 -198 -284 -287 -72
-85 -166 -212 -166 -224 0 -4 -11 -25 -26 -47 -66 -105 -167 -334 -213 -484
-22 -71 -51 -211 -71 -345 -28 -192 -22 -473 16 -666 8 -44 17 -94 20 -113 7
-51 32 -133 82 -266 110 -295 258 -529 477 -754 134 -138 295 -264 475 -373
30 -18 256 -120 267 -120 4 -1 51 -15 103 -33 52 -18 119 -38 148 -45 47 -11
63 -23 152 -111 55 -55 100 -98 100 -96 0 1 -11 36 -24 77 -12 41 -44 145 -71
230 -26 85 -60 191 -76 235 -15 44 -35 109 -43 145 -15 66 -44 145 -51 139 -2
-2 9 -56 25 -119 26 -109 47 -270 34 -270 -3 0 -23 18 -44 40 -36 37 -39 45
-44 117 -10 123 -26 239 -51 358 -12 61 -26 133 -30 160 l-6 50 43 -60 c58
-79 128 -197 128 -216 0 -8 12 -35 28 -60 42 -68 212 -420 212 -439 0 -6 16
-48 35 -91 19 -44 35 -89 35 -99 0 -11 5 -20 10 -20 6 0 10 -9 10 -19 0 -11
16 -66 35 -124 19 -57 35 -117 36 -133 0 -16 4 -38 9 -49 6 -16 9 -13 14 20
10 59 44 191 68 260 50 145 87 244 112 294 14 30 26 58 26 63 0 4 32 72 71
150 103 207 110 219 134 258 12 20 25 49 29 65 6 27 63 114 116 175 l21 25 -6
-35 c-3 -19 -12 -62 -20 -95 -13 -53 -54 -323 -71 -460 -6 -54 -50 -130 -74
-130 -18 0 -17 15 10 140 10 50 21 117 24 150 l6 60 -14 -45 c-14 -47 -34
-103 -98 -283 -21 -59 -43 -130 -48 -156 -5 -26 -15 -63 -23 -82 -20 -47 -54
-157 -61 -196 -5 -32 -4 -32 46 25 28 31 56 59 62 61 5 2 24 18 42 36 22 22
50 37 86 45 105 25 305 92 408 137 199 88 454 265 612 425 152 155 314 382
390 546 22 48 52 114 68 147 123 268 192 704 161 1025 -12 117 -53 349 -66
370 -3 5 -8 26 -10 45 -12 93 -166 437 -257 575 -174 264 -443 529 -685 675
-64 38 -63 36 -119 265 -14 58 -37 139 -50 180 -14 41 -32 107 -40 145 -8 39
-28 96 -44 127 -17 31 -30 64 -30 73 0 16 -34 55 -48 55 -5 0 -15 -6 -23 -12z
m57 -206 c9 -31 31 -104 49 -162 18 -58 36 -130 39 -160 8 -60 43 -189 57
-205 4 -6 11 -40 15 -75 3 -36 24 -136 45 -223 22 -87 39 -170 39 -184 0 -35
47 -229 69 -288 13 -33 27 -50 51 -63 108 -54 133 -236 72 -527 -48 -232 -94
-469 -112 -585 -40 -253 -84 -471 -111 -552 -16 -48 -35 -111 -43 -140 -8 -29
-26 -91 -41 -138 -36 -117 -75 -426 -80 -635 l-4 -170 14 145 c34 359 45 438
71 520 14 47 30 103 35 125 5 22 24 83 43 135 62 174 105 314 111 360 7 51 69
361 117 580 17 80 36 168 40 195 5 28 18 93 29 145 62 302 33 527 -75 591 -18
10 -38 30 -44 44 -16 35 -62 237 -62 272 0 28 -61 290 -76 328 -7 18 -5 18 32
-4 300 -176 614 -520 768 -844 95 -197 168 -406 182 -515 2 -20 11 -80 21
-132 21 -123 24 -465 4 -600 -8 -52 -15 -104 -17 -115 -1 -11 -3 -22 -4 -25
-1 -3 -2 -9 -1 -13 3 -20 -55 -213 -96 -317 -112 -287 -247 -500 -445 -705
-192 -199 -360 -324 -572 -428 -101 -50 -259 -113 -303 -121 -10 -2 -44 -11
-75 -19 -32 -8 -58 -12 -58 -9 0 4 35 38 79 75 l78 68 6 187 c7 245 28 356
124 667 44 144 89 269 104 290 4 6 10 25 14 44 6 29 40 101 65 136 21 31 65
189 50 180 -5 -3 -18 -34 -29 -68 -12 -35 -35 -79 -51 -98 -16 -19 -29 -39
-30 -46 0 -6 -18 -33 -41 -60 -22 -26 -59 -70 -82 -97 -23 -27 -61 -71 -84
-96 -24 -26 -43 -54 -43 -63 0 -9 -4 -19 -10 -22 -5 -3 -10 -19 -10 -35 0 -21
-10 -39 -34 -61 -39 -35 -117 -79 -141 -79 -25 0 -115 -49 -139 -76 -27 -32
-179 -84 -261 -91 -43 -3 -80 2 -130 17 -38 11 -86 25 -105 30 -19 5 -46 22
-60 37 -25 28 -124 83 -148 83 -25 0 -131 60 -151 86 -12 15 -21 38 -21 51 0
27 -52 111 -98 158 -37 38 -113 132 -138 170 -10 16 -29 41 -42 54 -13 14 -41
61 -63 105 -33 67 -39 74 -39 49 0 -29 12 -57 108 -248 20 -38 41 -92 48 -120
7 -27 26 -90 43 -140 113 -344 134 -448 153 -760 l11 -190 36 -30 c20 -16 53
-47 74 -67 l39 -38 -46 14 c-25 8 -46 12 -46 9 0 -2 -6 -1 -12 4 -7 4 -17 8
-23 8 -12 0 -95 32 -203 79 -168 72 -377 205 -497 315 -113 105 -264 268 -322
349 -143 200 -263 454 -332 700 -28 99 -37 144 -58 277 -4 28 -7 165 -7 305 1
236 3 265 28 385 87 418 278 783 566 1079 91 94 294 261 360 296 19 10 21 10
16 -8 -4 -11 -13 -57 -21 -103 -8 -46 -28 -145 -45 -218 -16 -74 -30 -146 -30
-160 0 -47 -30 -109 -59 -121 -30 -12 -83 -87 -99 -140 -28 -94 -21 -289 17
-470 12 -58 31 -152 42 -210 11 -58 38 -186 60 -285 22 -99 39 -190 39 -203 0
-48 82 -380 119 -482 46 -126 108 -323 114 -365 3 -16 16 -82 30 -145 26 -119
47 -293 42 -344 -2 -15 1 -38 6 -50 12 -27 2 269 -12 374 -13 98 -61 297 -103
435 -78 253 -98 329 -116 456 -21 141 -56 337 -120 659 -70 351 -79 461 -51
588 14 64 51 114 93 128 32 10 57 69 83 199 38 191 93 436 131 590 3 11 9 43
14 71 5 29 22 96 39 150 17 55 36 128 41 164 13 82 71 247 80 228 4 -7 13 -47
19 -88 41 -252 62 -404 67 -470 6 -82 35 -299 61 -449 12 -72 14 -131 10 -245
-7 -177 -12 -206 -37 -206 -23 0 -88 88 -106 143 l-13 42 0 -43 c-1 -62 65
-187 122 -233 30 -23 41 -13 51 46 11 63 64 228 81 253 34 48 89 64 245 73 80
5 161 10 180 13 49 6 384 -13 447 -25 41 -8 59 -18 88 -50 43 -48 50 -64 76
-188 11 -53 28 -107 36 -120 l15 -24 41 44 c57 62 100 159 104 234 l3 60 -14
-50 c-30 -103 -75 -175 -109 -175 -21 0 -27 36 -34 199 -4 106 -2 175 10 260
9 64 25 195 37 291 11 96 25 198 30 225 5 28 14 91 20 140 31 268 48 367 61
359 4 -2 16 -30 25 -62z m-386 -411 c52 -11 121 -28 153 -38 65 -19 65 -19 48
-155 -20 -148 -41 -335 -45 -395 -5 -74 -6 -76 -50 -97 -30 -14 -44 -15 -113
-4 -106 16 -652 16 -761 -1 -74 -11 -85 -10 -112 5 -16 10 -34 29 -39 43 -13
33 -30 173 -41 326 -5 66 -12 150 -16 186 l-7 65 74 22 c106 32 261 64 280 59
9 -3 22 -1 29 3 7 4 123 6 259 5 203 -3 263 -7 341 -24z"/>
<path d="M1818 4750 c-20 -82 -48 -234 -54 -285 -3 -33 -23 -139 -44 -235 -21
-96 -48 -252 -60 -345 -21 -154 -22 -189 -14 -375 10 -218 9 -250 -10 -250 -7
0 -39 29 -73 65 -65 69 -83 76 -133 50 -41 -21 -44 -47 -25 -172 24 -161 40
-209 80 -245 20 -17 35 -39 35 -52 0 -41 13 -36 44 16 53 88 96 145 153 205
18 19 42 50 53 69 12 19 32 39 43 46 12 6 28 19 35 30 7 10 20 18 29 18 17 0
118 63 128 80 9 14 -8 12 -41 -5 -57 -30 -117 -11 -173 54 -37 43 -56 161 -54
341 1 178 25 426 43 444 19 19 44 -21 77 -122 31 -95 32 -96 32 -50 1 26 -10
127 -24 224 -14 98 -25 229 -26 293 -1 137 -12 240 -21 201z"/>
<path d="M3340 4750 c-14 -252 -22 -347 -39 -460 -11 -74 -20 -166 -20 -205
l1 -70 13 40 c22 68 51 130 69 144 14 12 18 9 30 -20 32 -79 40 -155 41 -394
0 -258 -1 -264 -57 -355 -28 -47 -78 -80 -121 -80 -12 0 -39 9 -60 20 -20 11
-37 16 -37 10 0 -12 55 -53 141 -103 35 -21 81 -60 101 -85 119 -149 190 -247
205 -282 21 -47 29 -50 38 -12 3 16 22 44 41 63 44 43 60 96 75 255 11 120 11
127 -8 145 -10 11 -35 22 -55 25 -32 6 -39 2 -64 -27 -38 -45 -96 -99 -105
-99 -13 0 -14 39 -9 225 7 236 -2 381 -35 540 -15 72 -33 175 -40 230 -7 56
-27 159 -43 230 -17 72 -33 157 -37 189 -4 33 -11 69 -15 80 -8 20 -9 20 -10
-4z"/>
<path d="M2372 3158 c-1 -4 -11 -50 -23 -103 l-21 -95 37 -106 c25 -74 34
-115 30 -135 -9 -41 2 -36 21 9 13 31 14 46 4 92 -7 30 -17 66 -23 80 -6 14
-14 79 -17 145 -4 66 -7 117 -8 113z"/>
<path d="M2263 3067 c-23 -45 -52 -92 -65 -105 l-25 -22 -49 21 c-27 12 -73
32 -103 46 -30 14 -75 26 -101 27 -41 1 -52 -4 -99 -43 -51 -43 -63 -62 -77
-118 -6 -21 -4 -24 12 -19 17 5 19 1 17 -42 -3 -41 -1 -44 8 -25 20 38 49 40
78 4 14 -17 30 -31 35 -31 6 0 20 -10 33 -22 32 -30 130 -33 161 -5 27 25 92
57 92 46 0 -17 -94 -100 -146 -129 -56 -33 -57 -33 -173 14 -36 14 -67 26 -69
26 -2 0 11 -14 29 -32 54 -51 146 -117 187 -134 47 -18 81 -7 145 49 62 54
141 117 147 117 3 0 13 13 22 28 17 28 16 32 -17 128 -38 107 -38 124 -8 237
9 32 14 60 11 62 -2 3 -23 -32 -45 -78z m-180 -153 c51 -59 34 -136 -35 -160
-59 -20 -112 -2 -133 46 -21 46 -15 81 20 116 35 35 116 35 148 -2z"/>
<path d="M2791 3055 c-1 -85 -6 -113 -32 -188 -33 -92 -33 -115 1 -157 l20
-25 -6 32 c-3 17 0 53 9 80 49 160 49 160 28 263 l-19 95 -1 -100z"/>
<path d="M2865 3125 c29 -161 29 -184 -6 -288 -24 -73 -30 -103 -23 -115 6 -9
50 -47 99 -83 48 -37 95 -76 104 -87 39 -48 113 -46 174 5 16 12 32 23 36 23
4 0 30 20 57 45 27 24 52 45 57 45 4 0 7 4 7 9 0 5 -24 0 -52 -11 -88 -33
-132 -45 -148 -40 -51 16 -193 142 -178 157 2 3 28 -12 57 -31 93 -63 153 -56
248 30 l51 46 20 -25 c28 -36 34 -31 26 21 -6 45 -6 46 16 34 58 -31 27 46
-47 115 -83 78 -93 79 -263 14 -20 -8 -48 -22 -63 -32 -14 -9 -33 -17 -40 -17
-14 0 -81 91 -103 140 -37 82 -35 78 -29 45z m363 -210 c43 -36 50 -77 21
-120 -58 -84 -201 -48 -201 51 0 84 112 126 180 69z"/>
<path d="M1460 2892 c0 -4 11 -57 25 -117 14 -61 41 -216 61 -345 20 -129 38
-237 40 -239 11 -12 18 19 26 120 10 127 4 167 -41 288 -17 46 -36 114 -42
150 -12 76 -35 137 -55 145 -8 3 -14 2 -14 -2z"/>
<path d="M3672 2863 c-11 -21 -32 -90 -47 -153 -15 -63 -40 -149 -57 -190 -27
-68 -29 -81 -24 -150 9 -95 25 -180 35 -180 10 0 21 60 21 116 0 47 19 163 54
339 36 175 48 246 42 252 -2 3 -13 -12 -24 -34z"/>
<path d="M1596 2683 c9 -21 25 -58 35 -81 22 -49 4 -56 -19 -8 -22 43 -23 25
-3 -30 25 -69 95 -198 121 -226 29 -31 57 -93 65 -145 6 -41 25 -70 25 -39 0
26 29 47 58 40 30 -7 109 -86 123 -122 10 -27 11 -307 1 -429 -9 -100 0 -96
16 7 18 110 61 358 73 410 5 25 25 76 44 113 19 37 35 73 35 80 0 7 34 79 75
161 41 82 74 151 72 152 -4 4 -77 -93 -77 -101 0 -3 -16 -28 -35 -56 -19 -28
-35 -58 -35 -65 0 -15 -78 -132 -113 -172 l-21 -22 -28 27 c-16 15 -40 51 -55
81 l-26 53 17 61 c18 64 16 83 -6 49 -21 -34 -53 -25 -115 31 -32 28 -60 55
-61 60 -2 4 -20 26 -40 47 -56 60 -106 122 -114 142 -4 11 -12 19 -18 19 -5 0
-3 -16 6 -37z"/>
<path d="M3544 2680 c-16 -22 -46 -59 -66 -82 -21 -23 -38 -48 -38 -55 0 -7
-3 -13 -7 -13 -5 0 -39 -30 -78 -65 -75 -70 -110 -82 -133 -44 -22 34 -24 15
-6 -41 16 -50 16 -55 -2 -108 -10 -30 -32 -70 -49 -88 l-32 -33 -41 42 c-23
23 -47 58 -54 78 -13 35 -47 92 -105 177 -18 26 -41 63 -52 83 -11 19 -27 42
-36 49 -10 8 10 -39 44 -104 35 -65 66 -126 70 -135 4 -9 22 -45 39 -81 56
-115 112 -330 127 -485 8 -83 34 -205 44 -205 3 0 3 39 -1 88 -4 48 -8 155
-10 238 -2 163 5 193 65 258 45 49 127 52 127 6 0 -12 5 -18 10 -15 6 3 10 28
10 54 0 40 6 54 35 88 19 23 35 44 35 49 0 4 17 34 38 68 21 34 45 79 54 101
9 22 23 58 32 80 l17 40 -24 -27 c-12 -16 -26 -28 -30 -28 -8 0 20 73 46 118
27 45 7 40 -29 -8z"/>
<path d="M2577 2580 c-3 -14 -7 -35 -7 -47 0 -17 -6 -23 -22 -24 l-23 0 23
-16 c19 -14 22 -24 22 -92 0 -42 3 -87 7 -99 11 -44 23 0 23 89 0 78 2 88 23
102 22 16 22 16 1 16 -17 1 -22 10 -30 49 -8 41 -10 44 -17 22z"/>
<path d="M2447 2146 c-78 -23 -110 -51 -136 -120 -12 -33 -31 -83 -42 -111
-10 -27 -18 -76 -19 -107 0 -53 2 -59 38 -92 52 -48 89 -76 100 -76 5 0 17 -9
27 -20 13 -15 33 -20 84 -22 l66 -3 3 -67 3 -68 -53 -24 c-29 -13 -64 -29 -78
-35 -14 -6 -34 -17 -45 -23 -92 -58 -97 -71 -13 -34 105 46 315 44 413 -5 25
-12 47 -20 50 -17 8 7 -113 81 -159 96 -80 28 -87 37 -84 111 l3 66 59 3 c39
2 69 10 87 23 15 10 30 19 33 19 7 0 29 18 85 70 38 35 41 41 41 91 0 58 -22
151 -51 216 -10 24 -19 46 -19 49 0 15 -66 65 -99 75 -58 18 -239 20 -294 5z
m287 -138 c50 -14 62 -23 69 -49 4 -15 2 -18 -7 -10 -7 6 -24 11 -37 11 -13 0
-111 -2 -216 -3 l-193 -2 24 24 c13 12 39 27 57 31 53 12 257 11 303 -2z m106
-208 c0 -65 -83 -103 -138 -64 -30 21 -28 40 3 20 13 -9 33 -16 43 -16 27 0
69 35 76 65 9 34 16 32 16 -5z m-495 -10 c12 -38 88 -63 113 -38 6 6 15 9 19
5 15 -16 -21 -32 -68 -32 -41 0 -54 4 -70 24 -20 24 -26 61 -10 61 5 0 13 -9
16 -20z"/>
</g>
</svg>
